<svg width="24" height="22" viewBox="0 0 24 22" fill="none" xmlns="http://www.w3.org/2000/svg">
<path d="M21.5521 19.5152L19.6792 17.7525M11.7193 18.6338C12.8876 18.6338 14.0444 18.4173 15.1238 17.9965C16.2031 17.5757 17.1839 16.9589 18.01 16.1814C18.8361 15.4039 19.4914 14.4809 19.9385 13.465C20.3855 12.4492 20.6156 11.3604 20.6156 10.2608C20.6156 9.16123 20.3855 8.07244 19.9385 7.05657C19.4914 6.04071 18.8361 5.11767 18.01 4.34016C17.1839 3.56265 16.2031 2.9459 15.1238 2.52512C14.0444 2.10433 12.8876 1.88776 11.7193 1.88776C9.35983 1.88776 7.09701 2.76991 5.42862 4.34016C3.76023 5.91041 2.82294 8.04013 2.82294 10.2608C2.82294 12.4815 3.76023 14.6112 5.42862 16.1814C7.09701 17.7517 9.35983 18.6338 11.7193 18.6338V18.6338Z" stroke="white" stroke-width="1.5" stroke-linecap="round" stroke-linejoin="round"/>
</svg>
